<mxfile host="app.diagrams.net" agent="Mozilla/5.0 (Windows NT 10.0; Win64; x64) AppleWebKit/537.36 (KHTML, like Gecko) Chrome/134.0.0.0 Safari/537.36" version="26.1.0">
  <diagram name="logo" id="OwzvYA7-GEL_tj54Xrpw">
    <mxGraphModel dx="236" dy="117" grid="1" gridSize="10" guides="1" tooltips="1" connect="1" arrows="1" fold="1" page="1" pageScale="1" pageWidth="850" pageHeight="1100" math="0" shadow="0">
      <root>
        <mxCell id="0" />
        <mxCell id="1" parent="0" />
        <mxCell id="rNr-V_LVtyrLA9hJe4uP-27" value="" style="group" parent="1" vertex="1" connectable="0">
          <mxGeometry x="74" y="73" width="30" height="30" as="geometry" />
        </mxCell>
        <mxCell id="rNr-V_LVtyrLA9hJe4uP-8" value="" style="html=1;verticalLabelPosition=bottom;align=center;labelBackgroundColor=#ffffff;verticalAlign=top;strokeWidth=3;strokeColor=#CCCC00;shadow=0;dashed=0;shape=mxgraph.ios7.icons.trophy;fillColor=#FFFF99;" parent="rNr-V_LVtyrLA9hJe4uP-27" vertex="1">
          <mxGeometry y="1" width="30" height="30" as="geometry" />
        </mxCell>
        <mxCell id="rNr-V_LVtyrLA9hJe4uP-50" value="" style="verticalLabelPosition=bottom;verticalAlign=top;html=1;shape=mxgraph.basic.heart;fillColor=light-dark(#ff0000, #ededed);strokeColor=none;" parent="rNr-V_LVtyrLA9hJe4uP-27" vertex="1">
          <mxGeometry x="9" y="4" width="12" height="12" as="geometry" />
        </mxCell>
        <mxCell id="rNr-V_LVtyrLA9hJe4uP-26" value="&lt;font style=&quot;color: rgb(255, 255, 255);&quot;&gt;1&lt;/font&gt;" style="text;html=1;align=center;verticalAlign=middle;whiteSpace=wrap;rounded=0;fontSize=7;fontFamily=Comic Sans MS;fontStyle=1" parent="rNr-V_LVtyrLA9hJe4uP-27" vertex="1">
          <mxGeometry x="10" y="5" width="10" height="10" as="geometry" />
        </mxCell>
        <mxCell id="rNr-V_LVtyrLA9hJe4uP-28" value="" style="group" parent="1" vertex="1" connectable="0">
          <mxGeometry x="74" y="40" width="30" height="30" as="geometry" />
        </mxCell>
        <mxCell id="rNr-V_LVtyrLA9hJe4uP-3" value="" style="rounded=1;whiteSpace=wrap;html=1;strokeWidth=3;fillColor=default;" parent="rNr-V_LVtyrLA9hJe4uP-28" vertex="1">
          <mxGeometry width="30" height="30" as="geometry" />
        </mxCell>
        <mxCell id="rNr-V_LVtyrLA9hJe4uP-13" value="" style="rounded=0;whiteSpace=wrap;html=1;strokeWidth=1;fillColor=#000000;" parent="rNr-V_LVtyrLA9hJe4uP-28" vertex="1">
          <mxGeometry x="10" y="10" width="10" height="10" as="geometry" />
        </mxCell>
        <mxCell id="rNr-V_LVtyrLA9hJe4uP-29" value="" style="group;fillColor=none;" parent="1" vertex="1" connectable="0">
          <mxGeometry x="40" y="74" width="30" height="30" as="geometry" />
        </mxCell>
        <mxCell id="rNr-V_LVtyrLA9hJe4uP-4" value="" style="rounded=1;whiteSpace=wrap;html=1;strokeWidth=3;fillColor=default;" parent="rNr-V_LVtyrLA9hJe4uP-29" vertex="1">
          <mxGeometry width="30" height="30" as="geometry" />
        </mxCell>
        <mxCell id="rNr-V_LVtyrLA9hJe4uP-10" value="" style="rounded=0;whiteSpace=wrap;html=1;strokeWidth=1;fillColor=#000000;" parent="rNr-V_LVtyrLA9hJe4uP-29" vertex="1">
          <mxGeometry x="10" y="10" width="10" height="10" as="geometry" />
        </mxCell>
        <mxCell id="rNr-V_LVtyrLA9hJe4uP-45" value="" style="group" parent="1" vertex="1" connectable="0">
          <mxGeometry x="40" y="40" width="30" height="30" as="geometry" />
        </mxCell>
        <mxCell id="rNr-V_LVtyrLA9hJe4uP-20" value="" style="rounded=0;whiteSpace=wrap;html=1;strokeWidth=1;fillColor=#8F6A1F;strokeColor=none;" parent="rNr-V_LVtyrLA9hJe4uP-45" vertex="1">
          <mxGeometry width="15" height="15" as="geometry" />
        </mxCell>
        <mxCell id="rNr-V_LVtyrLA9hJe4uP-21" value="" style="rounded=0;whiteSpace=wrap;html=1;strokeWidth=1;fillColor=#1F6A81;strokeColor=none;" parent="rNr-V_LVtyrLA9hJe4uP-45" vertex="1">
          <mxGeometry y="15" width="15" height="15" as="geometry" />
        </mxCell>
        <mxCell id="rNr-V_LVtyrLA9hJe4uP-22" value="" style="rounded=0;whiteSpace=wrap;html=1;strokeWidth=1;fillColor=#95C241;strokeColor=none;" parent="rNr-V_LVtyrLA9hJe4uP-45" vertex="1">
          <mxGeometry x="15" width="15" height="30" as="geometry" />
        </mxCell>
        <mxCell id="rNr-V_LVtyrLA9hJe4uP-23" value="" style="endArrow=none;html=1;rounded=0;entryX=0.5;entryY=0;entryDx=0;entryDy=0;exitX=0.5;exitY=1;exitDx=0;exitDy=0;strokeColor=#FFFFFF;strokeWidth=0.5;" parent="rNr-V_LVtyrLA9hJe4uP-45" edge="1">
          <mxGeometry width="50" height="50" relative="1" as="geometry">
            <mxPoint x="15.000000000000057" y="30" as="sourcePoint" />
            <mxPoint x="15.000000000000057" as="targetPoint" />
          </mxGeometry>
        </mxCell>
        <mxCell id="rNr-V_LVtyrLA9hJe4uP-24" value="" style="endArrow=none;html=1;rounded=0;entryX=0;entryY=1;entryDx=0;entryDy=0;exitX=0;exitY=0.5;exitDx=0;exitDy=0;strokeColor=#FFFFFF;strokeWidth=0.5;" parent="rNr-V_LVtyrLA9hJe4uP-45" source="rNr-V_LVtyrLA9hJe4uP-22" target="rNr-V_LVtyrLA9hJe4uP-20" edge="1">
          <mxGeometry width="50" height="50" relative="1" as="geometry">
            <mxPoint x="25.000000000000057" y="40" as="sourcePoint" />
            <mxPoint x="25.000000000000057" y="10" as="targetPoint" />
          </mxGeometry>
        </mxCell>
        <mxCell id="rNr-V_LVtyrLA9hJe4uP-46" value="" style="rounded=1;whiteSpace=wrap;html=1;strokeWidth=3;fillColor=none;strokeColor=#333333;" parent="rNr-V_LVtyrLA9hJe4uP-45" vertex="1">
          <mxGeometry width="30" height="30" as="geometry" />
        </mxCell>
        <mxCell id="rNr-V_LVtyrLA9hJe4uP-47" value="" style="rounded=1;whiteSpace=wrap;html=1;strokeWidth=0.5;fillColor=none;strokeColor=#FFFFFF;arcSize=10;" parent="rNr-V_LVtyrLA9hJe4uP-45" vertex="1">
          <mxGeometry x="2" y="2" width="26" height="26" as="geometry" />
        </mxCell>
      </root>
    </mxGraphModel>
  </diagram>
</mxfile>
